<?xml version="1.0" encoding="UTF-8" standalone="no"?>
<svg height="28.95px" width="29.2px" xmlns="http://www.w3.org/2000/svg">
  <g transform="matrix(1.0, 0.0, 0.0, 1.0, 17.45, 13.6)">
    <path d="M-1.35 -3.2 L-0.65 -3.95 -0.75 -4.1 -0.85 -4.4 -0.7 -4.7 -0.5 -4.95 -0.4 -5.0 -0.25 -5.0 -0.25 -5.05 2.1 -3.1 2.3 -3.1 2.9 -3.6 3.5 -4.05 3.6 -4.2 3.7 -4.4 3.8 -4.6 3.85 -4.7 3.7 -4.95 3.6 -5.15 3.55 -5.45 3.5 -5.6 2.8 -6.85 Q2.45 -7.65 2.45 -8.45 L2.4 -8.55 2.35 -8.65 2.35 -8.85 2.4 -9.2 2.45 -9.5 2.45 -9.6 2.5 -9.7 2.6 -9.75 Q4.4 -13.15 8.4 -13.55 L8.6 -13.6 10.95 -12.8 11.15 -12.7 Q11.85 -10.95 11.75 -9.1 11.7 -8.1 11.15 -7.5 L11.1 -7.6 11.05 -7.7 11.0 -7.75 11.0 -7.8 Q11.8 -9.1 11.4 -10.75 L10.9 -12.5 Q7.1 -14.3 4.2 -11.35 L2.95 -9.95 2.95 -9.85 2.95 -9.75 2.95 -9.7 2.85 -9.65 2.8 -9.55 2.75 -9.45 2.7 -9.3 2.7 -9.15 2.6 -8.95 2.6 -8.9 2.95 -7.3 Q3.25 -6.45 3.8 -5.65 L3.8 -5.35 3.95 -5.05 4.1 -4.7 3.95 -4.35 3.75 -3.95 3.45 -3.55 Q3.0 -3.45 2.7 -3.2 L2.35 -2.9 2.9 -2.3 3.7 -1.6 3.75 -1.5 Q3.55 -1.4 3.6 -1.15 L3.5 -0.85 3.4 -0.55 2.95 -0.25 2.25 -0.6 1.6 -0.05 1.25 0.25 1.15 0.3 Q0.8 0.25 0.75 0.05 L0.8 -0.45 0.85 -0.65 0.65 -0.85 0.65 -1.0 0.45 -1.15 0.35 -1.35 0.35 -1.45 0.35 -1.55 0.35 -1.65 0.05 -2.0 -0.45 -2.5 -1.05 -2.95 -1.05 -3.0 -1.85 -2.5 -1.35 -3.2 M3.25 -1.7 L3.35 -1.7 Q3.25 -1.75 3.25 -1.75 L3.25 -1.7" fill="#000000" fill-rule="evenodd" stroke="none"/>
    <path d="M1.6 -0.05 Q3.05 2.25 3.05 5.2 3.05 9.35 0.05 12.35 -2.95 15.35 -7.2 15.35 -11.45 15.35 -14.45 12.35 -17.45 9.35 -17.45 5.2 -17.45 1.0 -14.45 -2.0 -11.45 -5.0 -7.2 -5.0 -3.9 -5.0 -1.35 -3.2 L-1.85 -2.5 -1.05 -3.0 -1.05 -2.95 -0.45 -2.5 0.05 -2.0 0.35 -1.65 0.35 -1.55 0.35 -1.45 0.35 -1.35 0.45 -1.15 0.65 -1.0 0.65 -0.85 0.85 -0.65 0.8 -0.45 0.75 0.05 Q0.8 0.25 1.15 0.3 L1.25 0.25 1.6 -0.05" fill="url(#gradient0)" fill-rule="evenodd" stroke="none"/>
  </g>
  <defs>
    <radialGradient cx="0" cy="0" gradientTransform="matrix(0.0127, 0.0, 0.0, 0.0127, -7.2, 5.15)" gradientUnits="userSpaceOnUse" id="gradient0" r="819.2" spreadMethod="pad">
      <stop offset="0.0" stop-color="#ffffff"/>
      <stop offset="1.0" stop-color="#000000"/>
    </radialGradient>
  </defs>
</svg>
