<?xml version="1.0" encoding="UTF-8" standalone="no"?>
<svg height="39.05px" width="38.5px" xmlns="http://www.w3.org/2000/svg">
  <g transform="matrix(1.0, 0.0, 0.0, 1.0, 19.6, 19.9)">
    <path d="M15.95 -18.85 L16.95 -18.6 1.9 -18.05 -0.45 -17.85 0.0 -18.2 0.05 -18.2 1.3 -18.45 Q8.7 -18.9 15.95 -18.85 M17.35 -14.25 L17.05 -12.8 16.35 -12.85 14.75 -12.95 13.8 -12.75 Q12.15 -12.15 10.5 -12.75 L8.7 -12.9 3.8 -11.45 2.45 -11.25 1.0 -11.25 -0.1 -11.15 -1.8 -10.95 -5.55 -10.05 -6.95 -9.95 -11.85 -10.7 -11.95 -10.5 -12.05 -10.5 Q-13.1 -10.15 -13.35 -10.8 L-13.45 -11.45 -13.45 -11.5 -13.15 -11.65 Q-11.3 -12.7 -8.95 -11.9 -6.3 -11.05 -3.75 -11.9 -0.1 -13.1 3.75 -12.75 7.55 -15.05 11.95 -14.2 L14.1 -14.35 14.65 -14.5 17.25 -14.3 17.35 -14.25 M17.0 -12.3 L16.9 -10.75 12.95 -11.1 12.85 -11.2 12.85 -11.25 Q12.8 -11.4 12.9 -11.55 L12.95 -11.6 Q14.7 -12.5 16.65 -12.3 L16.7 -12.3 16.8 -12.3 17.0 -12.3 M17.8 -1.8 L18.2 -0.15 18.25 0.45 Q17.5 -0.45 17.8 -1.8 M18.25 16.6 L18.15 16.95 18.05 17.0 Q16.3 16.15 14.45 16.4 13.0 16.65 11.65 16.4 L10.0 15.95 9.95 15.85 9.65 15.5 5.5 16.05 Q-0.55 18.3 -6.95 16.8 L-7.2 16.85 -7.25 16.95 Q-7.45 17.4 -7.95 17.6 -11.05 17.85 -13.55 16.95 L-13.7 16.95 -13.75 16.9 -13.75 16.85 -13.75 16.8 -13.75 16.7 -13.7 16.65 -13.7 16.6 -13.65 16.55 -13.45 16.45 -13.2 16.35 -13.05 16.4 -12.9 16.65 -8.15 17.0 Q-6.85 15.4 -4.7 16.2 L-3.0 16.55 Q2.3 16.75 7.3 15.15 L8.45 14.85 9.85 14.85 9.95 14.9 10.4 15.4 10.95 15.55 12.1 16.0 16.3 15.5 17.55 16.1 18.25 16.6 M-19.55 9.1 L-19.6 7.0 -19.55 7.5 -19.55 9.1 M-19.55 -2.05 L-19.5 -4.6 -19.45 -5.95 Q-18.95 -4.85 -19.0 -3.35 L-19.05 -2.2 Q-19.25 -1.95 -19.55 -2.05 M-13.5 -19.6 L-12.9 -19.6 -12.75 -19.3 -12.75 -19.2 Q-13.1 -19.15 -13.25 -19.55 L-13.35 -17.4 -13.5 -17.55 -13.55 -17.65 -13.6 -17.85 -13.65 -19.25 -13.55 -19.3 -13.4 -19.45 -13.4 -19.55 -13.5 -19.6 M9.25 -15.9 L9.25 -15.85 9.25 -15.75 9.15 -15.6 9.05 -15.55 8.8 -15.55 Q5.75 -16.2 3.05 -14.25 L1.95 -13.75 Q-2.4 -12.65 -6.85 -12.8 L-6.85 -12.7 -7.0 -12.6 -7.1 -12.6 -7.7 -12.95 -7.75 -12.95 -7.8 -13.15 -7.55 -13.15 -1.2 -13.85 0.95 -14.1 Q3.05 -14.35 4.75 -15.55 5.75 -16.25 6.95 -16.45 L7.05 -16.45 7.2 -16.45 8.0 -16.45 Q8.7 -16.4 9.25 -15.9 M13.45 12.3 L13.3 11.55 13.25 11.3 13.25 11.05 13.25 10.7 13.25 10.6 13.25 10.35 13.2 10.25 13.1 10.15 13.1 9.9 13.0 9.35 13.0 9.2 13.0 9.1 13.05 9.05 13.4 8.95 13.5 8.9 Q15.3 9.6 17.25 9.75 L17.65 9.75 17.65 9.8 17.35 9.85 13.35 9.35 13.45 10.35 13.5 10.95 13.6 11.55 13.7 12.5 13.6 12.55 13.4 12.4 13.45 12.3 M-10.5 5.8 L-11.1 5.45 -11.95 5.55 -11.95 5.6 -12.2 5.7 -12.25 5.75 -12.4 5.8 -13.05 4.5 -13.2 3.75 -13.25 2.95 -13.1 2.7 -13.15 1.85 Q-11.9 -0.8 -12.45 -4.0 -12.65 -5.4 -12.4 -6.65 L-12.8 -7.1 -12.8 -7.2 Q-12.8 -7.45 -13.0 -7.3 L-13.1 -7.3 -13.3 -7.4 -13.85 -8.2 -14.0 -8.4 -14.0 -8.7 -14.0 -9.1 -13.95 -9.55 -14.0 -10.15 -13.8 -10.35 -9.7 -9.2 -9.55 -9.15 -9.35 -8.8 -9.35 -8.7 Q-10.75 -8.35 -12.1 -7.6 L-12.05 -7.5 -12.0 -7.5 -11.95 -7.4 Q-11.45 -2.95 -12.3 1.45 L-12.55 2.25 -12.45 2.45 Q-11.5 2.8 -10.95 3.7 L-10.95 3.8 -10.95 3.85 -10.95 3.9 -10.6 4.15 -10.5 5.8 M-3.75 -16.9 Q-8.4 -15.0 -13.65 -16.2 L-13.65 -16.35 -13.35 -16.4 Q-8.3 -15.9 -3.55 -17.1 L-3.75 -16.9 M-13.6 -16.7 L-13.6 -17.15 -13.6 -16.9 -13.6 -16.8 -13.6 -16.7 M-10.15 4.85 L-10.1 4.7 -10.1 4.75 -10.15 4.85 M-9.95 5.4 L-9.9 5.45 -9.95 5.6 -10.0 5.7 -10.05 5.8 -10.1 5.8 -10.15 5.75 -10.15 5.1 -9.95 5.4" fill="#000066" fill-rule="evenodd" stroke="none"/>
    <path d="M0.0 -18.2 L-0.45 -17.85 Q-1.2 -17.4 -2.5 -17.25 L-3.5 -16.75 Q-3.9 -16.35 -4.25 -16.45 L-3.75 -16.9 -3.55 -17.1 Q-2.15 -18.15 -0.1 -18.25 L0.05 -18.25 0.0 -18.2 M17.55 -15.0 L17.45 -14.7 Q14.95 -16.6 11.95 -15.85 L9.25 -15.75 9.25 -15.85 9.25 -15.9 14.35 -16.4 15.6 -16.15 17.55 -15.0 M17.05 -12.8 L17.05 -12.55 Q15.05 -13.3 13.05 -12.2 L10.4 -12.25 9.1 -12.35 8.25 -12.1 8.15 -12.0 8.05 -11.9 7.1 -11.75 10.1 -10.7 10.3 -10.6 Q13.35 -11.4 16.6 -10.5 L16.7 -10.4 16.8 -10.35 16.9 -10.25 16.9 -9.0 16.8 -9.3 16.75 -9.7 16.55 -10.05 Q16.25 -10.5 15.6 -10.25 L15.5 -10.35 15.35 -10.45 10.55 -10.3 Q8.45 -10.9 6.7 -11.65 5.0 -11.25 3.55 -10.25 L3.45 -10.15 3.6 -10.15 Q4.7 -8.2 6.45 -6.7 L7.55 -5.5 7.35 -4.8 7.2 -4.2 Q6.3 -4.3 5.35 -5.0 L5.2 -5.1 Q3.0 -8.3 0.0 -10.5 L-1.8 -10.65 -3.3 -10.05 -5.35 -9.2 -7.05 -8.95 -8.25 -9.15 -8.5 -9.15 -8.6 -8.95 -8.75 -8.7 -8.8 -8.4 -8.55 -8.6 -7.55 -8.0 -7.45 -7.9 -7.45 -7.8 -7.4 -7.75 -7.4 -7.65 -5.5 -5.5 -5.3 -5.25 -5.05 -5.1 -4.95 -5.0 -4.8 -4.75 -4.65 -4.45 -4.45 -4.05 -4.2 -3.75 -4.05 -3.25 -3.7 -2.8 -3.65 -2.7 -3.65 -2.65 -3.65 -2.45 -3.35 -1.9 -3.1 -1.65 -2.5 -1.5 -1.3 -0.75 -1.2 -0.65 Q-0.55 -0.45 0.0 -0.05 L0.35 0.45 0.55 0.9 0.45 1.05 0.4 1.05 0.15 1.15 -0.4 0.65 -0.55 0.4 -1.75 -0.4 -1.75 -0.45 Q-3.25 -0.75 -4.2 -2.0 L-4.25 -2.1 -4.25 -2.2 -4.25 -2.35 -4.55 -2.8 -4.75 -3.15 -4.75 -3.25 -4.75 -3.35 -4.75 -3.4 -5.05 -3.85 -5.2 -4.2 -5.35 -4.3 -5.4 -4.4 -5.45 -4.5 -5.45 -4.55 -5.5 -4.65 -5.9 -5.1 -6.05 -5.35 -6.1 -5.4 -6.2 -5.45 -6.4 -5.5 -6.6 -5.85 Q-6.65 -6.05 -6.85 -6.05 L-6.9 -6.15 -6.95 -6.3 -7.0 -6.4 -7.95 -7.4 -8.05 -7.55 -8.1 -7.6 -8.2 -7.65 -8.4 -7.7 -8.8 -8.1 -8.85 -8.2 -8.8 -8.4 -9.15 -5.25 -9.1 -4.65 -9.05 -4.55 -8.95 -4.45 -8.85 -2.8 -8.75 -2.3 -8.65 -2.2 -8.6 -2.1 -8.5 -1.6 -8.25 -1.5 -8.4 -1.15 -8.25 -0.6 Q-8.05 0.45 -8.6 1.3 L-8.75 1.55 -8.75 1.7 -8.9 1.8 Q-8.95 1.95 -9.15 1.95 L-9.2 2.25 -9.25 2.3 -9.4 2.5 -9.4 2.6 -9.7 4.1 -9.9 4.2 -9.85 4.4 -9.8 4.85 -9.75 4.9 -9.65 5.0 -9.6 6.55 -9.3 7.15 -9.3 7.5 -9.3 7.6 -9.55 7.9 -9.55 8.55 -9.6 9.1 -9.6 9.15 -11.45 11.15 -11.3 11.5 -11.2 11.8 Q-9.8 13.0 -8.95 14.6 L-9.35 14.65 -9.4 14.6 -9.45 14.45 -9.5 14.15 -11.5 11.95 -11.55 11.8 -11.7 11.6 -11.75 11.5 -11.8 11.35 -11.85 11.25 Q-11.05 9.9 -9.85 8.8 L-9.95 6.4 -10.45 6.05 -10.5 5.8 -10.6 4.15 Q-10.6 2.6 -10.05 1.2 L-9.95 1.1 -9.95 0.95 -9.95 0.85 -9.55 0.35 Q-9.2 -1.1 -9.2 -2.6 L-9.25 -3.05 -9.35 -3.15 -9.4 -3.25 -9.4 -3.35 -9.4 -3.4 -9.35 -3.6 -9.25 -3.7 -9.25 -3.85 -9.25 -4.2 -9.3 -4.3 -9.4 -4.4 -9.4 -6.55 -9.4 -7.2 -9.3 -7.3 -9.25 -7.35 -8.9 -9.15 -8.75 -9.3 -13.95 -10.5 -13.95 -10.6 -13.75 -10.75 -13.65 -10.85 -13.35 -10.8 Q-13.1 -10.15 -12.05 -10.5 L-11.95 -10.5 -7.05 -9.3 -5.65 -9.35 -3.75 -10.0 Q-2.95 -10.65 -1.8 -10.95 L-0.1 -11.15 1.0 -11.25 2.85 -10.6 Q3.35 -10.25 3.85 -10.6 6.9 -12.5 10.4 -12.6 L11.3 -12.4 13.1 -12.35 14.75 -12.95 16.35 -12.85 17.05 -12.8 M17.0 -12.45 L17.0 -12.3 16.8 -12.3 16.7 -12.3 16.65 -12.35 16.8 -12.4 17.0 -12.45 M17.05 -7.8 L17.15 -7.0 17.3 -6.2 Q17.2 -3.5 17.5 -0.7 L17.95 4.6 18.0 4.95 Q17.9 6.3 18.15 7.7 L18.2 9.9 18.25 10.0 18.35 10.1 18.3 13.05 18.35 13.5 18.3 13.6 18.2 13.7 18.05 14.35 18.05 14.4 18.0 14.6 17.95 14.65 17.95 14.75 17.75 14.95 18.05 15.65 18.4 15.95 18.3 16.3 17.55 15.55 17.45 15.2 17.25 15.4 17.2 15.05 17.2 14.95 15.45 15.0 15.35 15.05 15.25 15.05 14.6 15.3 13.65 15.5 Q11.75 15.15 10.35 13.8 L7.75 14.3 7.25 14.45 7.35 14.3 6.9 14.25 Q3.2 16.5 -1.35 16.1 L-5.35 15.7 -8.3 15.75 -8.5 15.95 Q-9.3 16.9 -10.9 16.45 L-13.45 16.1 Q-13.95 16.05 -14.05 15.75 L-13.9 15.55 -13.75 15.7 -8.9 16.1 -8.85 16.0 -8.8 15.85 -8.8 15.75 Q-7.25 14.95 -5.2 15.4 L-2.65 15.7 2.3 15.5 1.05 14.85 -0.8 14.7 -0.85 14.4 -0.85 14.25 -0.45 14.05 -0.6 14.0 -0.45 14.05 Q1.95 12.75 4.1 15.05 6.9 13.45 6.6 9.85 L6.25 7.6 5.55 7.1 1.5 7.6 1.15 7.9 0.8 7.8 0.8 6.35 0.85 6.3 0.85 6.25 0.9 6.25 0.8 6.2 0.7 4.65 0.75 4.65 0.95 4.65 1.05 7.2 1.1 7.55 1.3 7.45 1.45 7.35 6.0 7.15 6.45 7.35 Q7.0 10.25 6.4 13.2 L6.35 13.55 5.4 14.75 6.7 13.95 7.45 13.95 7.8 12.85 8.05 11.85 8.25 10.8 8.3 10.4 9.8 10.25 10.05 9.55 10.05 8.75 10.05 8.6 10.05 8.5 10.05 8.25 10.05 8.15 10.15 8.05 10.2 7.95 10.2 7.45 10.2 6.9 10.2 6.55 Q10.35 6.25 10.7 6.45 L11.05 6.5 11.1 6.45 11.15 6.35 11.25 6.3 Q13.45 6.45 15.3 7.75 L15.6 7.95 15.8 7.9 15.85 7.85 16.15 6.6 16.3 6.15 16.4 5.9 16.75 4.75 16.7 4.6 16.65 4.4 16.65 4.2 15.75 3.0 15.45 2.55 15.3 2.3 14.75 1.6 8.5 1.55 8.95 1.35 Q12.05 1.25 15.1 1.45 L15.85 2.6 16.25 3.15 16.35 3.3 16.9 3.95 Q17.15 4.75 16.85 5.6 L16.5 6.6 16.2 7.6 16.1 8.15 Q14.45 7.95 12.8 7.0 12.35 6.75 11.75 6.65 L11.35 6.7 Q11.1 7.05 10.6 6.85 L10.5 6.8 10.5 7.35 10.5 7.85 10.5 8.2 10.45 8.3 10.35 8.4 10.35 9.15 10.3 10.05 10.25 10.15 9.9 10.6 8.6 10.75 8.5 11.1 8.5 11.35 8.5 11.65 8.4 11.75 8.35 11.8 8.05 13.05 7.9 13.5 7.9 13.75 7.9 13.95 10.1 13.45 Q11.75 14.65 13.65 14.9 L13.8 14.95 14.45 14.95 12.8 12.75 12.75 12.55 Q12.7 12.35 12.95 12.2 L13.05 12.15 13.45 12.3 13.4 12.4 13.6 12.55 13.7 12.5 15.3 14.6 15.45 14.6 15.7 14.65 15.7 14.7 15.65 14.85 16.75 14.65 17.4 14.65 17.55 13.9 17.55 13.8 17.7 13.65 Q17.4 11.95 17.45 10.2 L17.45 9.95 17.35 9.85 17.65 9.8 17.65 9.75 17.25 9.75 Q16.2 8.6 16.95 6.8 L17.3 5.65 17.35 5.3 17.55 5.15 17.3 -0.85 14.8 -1.0 14.35 -1.4 13.95 -1.9 13.95 -2.0 13.95 -2.05 13.95 -2.15 Q13.45 -2.6 13.2 -3.15 L12.65 -4.15 Q11.05 -4.35 9.75 -3.45 L8.95 -3.15 5.35 -2.5 5.3 -2.35 5.15 -2.15 5.05 -2.05 4.7 -2.15 4.4 -2.2 4.2 -2.3 3.25 -1.65 2.95 -1.2 2.65 -1.25 2.55 -1.3 Q0.75 -1.5 0.1 -3.1 L-0.05 -3.55 Q-0.95 -4.45 -1.5 -5.65 L-2.25 -6.9 -2.4 -7.35 -2.45 -7.8 -2.25 -7.85 Q0.45 -6.75 2.5 -4.6 L2.55 -4.65 5.05 -3.0 9.9 -3.6 Q10.8 -4.45 12.15 -4.6 L12.85 -4.45 12.95 -4.3 13.1 -4.15 13.2 -4.05 Q13.25 -3.6 13.45 -3.2 L14.15 -2.45 14.2 -2.35 14.25 -2.3 14.25 -2.2 14.25 -2.1 Q15.25 -0.7 17.25 -0.95 L17.3 -0.85 17.3 -0.95 17.05 -7.2 17.05 -7.8 M17.8 18.15 L17.75 18.35 17.65 18.3 17.8 18.15 M-13.0 17.7 L-13.25 17.7 -13.7 16.95 -13.55 16.95 -13.1 17.6 -13.0 17.7 M-16.3 17.7 L-16.6 17.7 -16.35 15.2 -16.3 15.1 -16.4 13.7 -16.4 13.65 -16.55 13.35 Q-17.35 11.1 -17.25 8.7 -16.8 8.25 -16.9 7.55 L-16.75 7.4 -16.55 5.8 -16.4 5.65 Q-15.95 2.3 -16.4 -0.95 L-16.4 -1.05 -16.55 -1.2 -16.65 -6.75 -16.55 -6.75 -16.25 -1.55 -16.25 -1.5 -16.1 -1.3 Q-15.3 4.05 -16.95 8.9 -17.15 9.8 -16.95 10.75 -16.65 11.2 -16.6 11.8 -16.25 12.4 -16.25 13.2 L-16.1 13.35 -16.0 14.5 -16.3 17.7 M-19.5 10.35 L-19.5 9.7 -19.5 9.65 Q-17.6 5.75 -18.3 1.45 -18.9 -2.25 -18.95 -5.9 L-19.0 -6.35 -19.0 -6.6 -19.45 -6.7 -19.45 -7.15 Q-18.9 -7.2 -18.45 -6.65 L-18.55 -6.15 -18.5 -5.9 Q-18.35 -5.55 -18.0 -5.8 L-17.95 -5.9 -17.7 -7.65 -17.4 -8.3 -17.05 -8.4 -16.5 -8.9 -16.45 -8.9 -17.05 -10.6 Q-18.45 -14.15 -17.6 -17.8 -17.6 -14.7 -17.05 -11.75 L-16.75 -11.05 -16.35 -10.4 -16.3 -8.85 -15.55 -8.1 -15.4 -8.05 -15.35 -8.15 -15.25 -9.2 Q-15.0 -9.6 -15.0 -10.1 L-15.1 -11.0 -15.1 -11.05 -15.25 -11.35 -15.25 -12.4 -15.25 -12.45 -15.1 -12.8 -17.1 -14.1 -16.9 -15.6 -16.9 -15.65 -16.75 -15.85 -16.55 -17.4 -16.55 -17.5 Q-16.8 -17.8 -16.65 -17.9 L-17.0 -18.2 -17.2 -18.3 -17.25 -18.35 -17.25 -18.4 -17.35 -18.5 -17.65 -18.55 -18.55 -18.5 -17.65 -18.95 -17.6 -18.95 -17.4 -18.95 -17.3 -18.9 -17.3 -18.95 -17.3 -19.05 -17.05 -19.15 -17.0 -18.75 Q-16.0 -18.15 -15.3 -17.2 L-13.85 -15.7 -13.75 -15.7 -13.55 -15.7 -13.45 -15.65 -13.4 -15.6 -13.5 -15.5 -13.55 -15.4 -13.65 -15.35 -13.8 -15.3 -16.3 -17.6 Q-16.3 -16.15 -16.7 -14.65 L-16.7 -14.6 Q-15.85 -13.7 -14.8 -13.05 L-14.8 -12.7 -14.8 -12.6 Q-14.8 -12.4 -14.95 -12.3 L-14.95 -11.6 -14.95 -11.55 -14.8 -11.25 -14.8 -9.25 -14.85 -9.15 -15.05 -8.3 -14.95 -8.2 -15.1 -7.95 -15.1 -7.65 -15.2 -7.8 -15.25 -7.8 -15.35 -7.75 -15.8 -7.75 -16.35 -8.35 -16.4 -8.4 -16.45 -8.5 -16.75 -8.25 -16.8 -8.15 Q-17.0 -8.0 -17.25 -8.0 -17.65 -7.2 -17.6 -6.25 L-17.7 -5.55 Q-18.1 -5.2 -18.5 -5.35 L-18.65 -5.45 -18.7 -5.4 Q-18.05 0.2 -18.1 5.85 -18.15 8.15 -19.35 10.1 L-19.5 10.35 M-14.15 -19.55 L-13.5 -19.6 -13.4 -19.55 -13.4 -19.45 -13.55 -19.3 -13.65 -19.25 -13.8 -19.2 -13.9 -19.05 -13.95 -18.95 -13.95 -18.65 -13.95 -18.55 -13.9 -18.35 -13.85 -18.25 -13.75 -18.2 -13.7 -18.1 -13.65 -18.0 -13.6 -17.85 -13.55 -17.65 -13.5 -17.55 -13.35 -17.4 -13.3 -17.3 -13.3 -16.95 -13.3 -16.85 -13.3 -16.7 -13.3 -16.6 -13.35 -16.45 -13.35 -16.4 -13.65 -16.35 -14.0 -16.55 -14.05 -16.65 -14.05 -16.7 -13.9 -16.7 -13.6 -16.7 -13.6 -16.8 -13.6 -16.9 -13.6 -17.15 -13.7 -17.25 -13.85 -17.6 -13.9 -17.7 -13.95 -17.85 -14.05 -17.95 -14.15 -18.05 -14.2 -18.2 -14.3 -18.55 -14.3 -18.75 -14.3 -18.85 -14.3 -19.1 -14.25 -19.15 -14.05 -19.55 -14.15 -19.55 M-13.75 16.85 L-14.0 16.45 -14.75 15.35 -14.75 14.5 -14.6 13.6 -13.7 12.65 -13.35 12.25 Q-12.45 7.5 -13.8 2.75 -14.05 1.8 -13.4 1.0 -13.05 -2.05 -13.3 -5.15 L-13.35 -7.0 Q-14.85 -9.15 -14.45 -11.75 L-13.95 -13.15 -12.0 -14.15 -11.8 -14.25 -11.7 -14.45 -11.6 -14.5 -11.55 -14.5 Q-11.3 -14.3 -11.4 -14.1 L-11.15 -14.05 Q-10.05 -13.3 -8.65 -13.8 L-8.4 -13.8 -8.5 -13.35 -8.65 -12.95 -8.75 -12.85 Q-9.0 -12.6 -9.25 -12.85 L-8.95 -13.25 -8.8 -13.45 Q-10.2 -13.05 -11.45 -14.0 -11.7 -13.8 -12.25 -13.6 -12.85 -13.4 -13.25 -12.95 L-13.75 -12.8 -14.0 -12.1 -13.9 -12.15 -13.85 -12.1 -13.85 -11.9 Q-13.95 -11.7 -13.2 -12.15 L-10.8 -12.7 -8.95 -12.55 Q-8.1 -12.95 -7.5 -13.7 L-6.0 -15.2 Q-3.85 -15.25 -1.8 -14.55 -1.6 -14.55 -1.45 -14.75 L-1.05 -15.2 -0.8 -15.45 Q0.9 -16.45 2.85 -17.15 L4.25 -17.6 6.15 -17.35 6.75 -17.2 Q7.2 -16.8 7.75 -16.6 L8.0 -16.45 7.2 -16.45 7.05 -16.55 Q3.7 -17.9 0.45 -15.85 L0.4 -15.75 0.2 -15.6 -0.15 -15.5 -0.7 -15.0 -1.25 -14.45 -1.45 -14.25 -5.85 -14.9 -7.2 -13.55 -7.55 -13.15 -7.8 -13.15 -7.75 -12.95 -8.6 -12.25 Q-11.15 -12.95 -13.15 -11.65 L-13.45 -11.5 -13.45 -11.45 -13.75 -11.25 -14.25 -10.9 -14.1 -9.1 -14.0 -8.7 -14.0 -8.4 -13.85 -8.2 -13.3 -7.4 -13.15 -7.25 -13.05 -7.15 -12.95 -0.85 -13.05 1.1 -13.3 1.85 Q-13.55 2.75 -13.35 3.8 L-13.15 4.5 -13.15 4.55 -12.85 6.1 -12.6 10.85 -12.9 11.6 -13.05 12.45 -13.65 13.15 -14.05 13.7 -14.3 13.85 -14.35 13.9 Q-14.45 14.9 -14.15 15.8 L-13.8 16.65 -13.75 16.7 -13.75 16.8 -13.75 16.85 M5.15 -6.35 L5.3 -6.25 5.2 -6.4 2.4 -9.75 2.05 -9.85 5.15 -6.35 M5.9 -6.4 L6.95 -5.75 Q5.0 -7.5 3.6 -9.6 L3.5 -9.8 3.05 -9.85 Q4.2 -7.85 5.85 -6.4 L5.9 -6.4 M0.6 0.95 L1.1 0.55 1.5 0.5 5.0 1.2 4.9 1.25 5.2 1.5 4.3 1.35 2.05 0.95 1.45 0.75 0.8 1.15 0.75 1.3 0.8 1.55 0.85 1.8 0.75 1.9 0.55 1.7 0.45 1.55 0.45 1.4 0.45 1.2 0.45 1.05 0.6 0.95 M2.0 -10.35 L0.2 -10.9 0.3 -10.85 2.0 -10.35 M1.85 -1.75 L2.8 -1.55 2.95 -1.75 3.2 -2.05 3.25 -2.2 3.95 -2.55 4.1 -2.6 4.5 -2.45 5.0 -2.45 5.0 -2.5 4.95 -2.7 4.9 -2.85 4.9 -2.9 Q3.8 -3.25 2.6 -4.0 L2.25 -4.45 Q0.6 -6.3 -1.7 -7.35 L-2.05 -7.35 -0.25 -4.55 0.5 -2.9 Q1.0 -2.1 1.85 -1.75 M6.55 -5.3 Q6.85 -5.7 6.05 -5.9 L6.5 -5.4 6.55 -5.3 M6.8 -4.8 L5.45 -5.45 6.95 -4.45 7.2 -5.15 7.1 -5.6 7.05 -5.3 7.05 -5.15 Q6.8 -5.1 6.85 -4.9 L6.8 -4.8 M0.45 3.1 L0.1 2.0 0.2 2.0 Q0.75 2.5 0.8 3.3 L0.85 3.4 0.85 3.5 0.45 3.15 0.45 3.1 M3.0 15.45 L2.4 15.2 2.9 15.45 3.0 15.45 M3.15 14.85 L3.15 14.75 2.25 14.05 1.65 13.8 1.05 13.8 2.0 14.1 2.4 14.2 2.85 14.65 3.15 14.85 M0.9 13.8 Q0.4 13.8 0.0 14.05 L0.85 13.8 0.9 13.8 M14.95 14.8 L14.95 14.85 14.95 14.95 15.05 14.95 14.95 14.8 M-8.6 -0.35 L-8.6 0.0 -8.6 0.1 -8.55 -0.15 -8.6 -0.35 M-10.15 4.85 L-10.1 4.75 -10.1 4.7 -10.15 4.85 -10.15 5.1 -10.15 5.75 -10.1 5.8 -9.95 6.0 -9.95 5.7 -9.95 5.6 -9.9 5.45 -9.95 5.4 -9.95 5.2 -10.05 5.1 -10.1 5.0 -10.15 4.85 M-0.55 14.35 L0.8 14.5 -0.2 14.15 -0.55 14.35" fill="#ffffff" fill-rule="evenodd" stroke="none"/>
    <path d="M-0.45 -17.85 L1.9 -18.05 16.95 -18.6 18.15 -18.4 18.2 -18.35 18.35 -18.1 18.55 -17.8 Q17.9 -16.45 17.55 -15.0 L15.6 -16.15 14.35 -16.4 9.25 -15.9 Q8.7 -16.4 8.0 -16.45 L7.75 -16.6 Q7.2 -16.8 6.75 -17.2 L6.15 -17.35 4.25 -17.6 2.85 -17.15 Q0.9 -16.45 -0.8 -15.45 L-1.05 -15.2 -1.45 -14.75 Q-1.6 -14.55 -1.8 -14.55 -3.85 -15.25 -6.0 -15.2 L-7.5 -13.7 Q-8.1 -12.95 -8.95 -12.55 L-10.8 -12.7 -13.2 -12.15 Q-13.95 -11.7 -13.85 -11.9 L-13.85 -12.1 -13.9 -12.15 -14.0 -12.1 -13.75 -12.8 -13.25 -12.95 Q-12.85 -13.4 -12.25 -13.6 -11.7 -13.8 -11.45 -14.0 -10.2 -13.05 -8.8 -13.45 L-8.95 -13.25 -9.25 -12.85 Q-9.0 -12.6 -8.75 -12.85 L-8.65 -12.95 -8.5 -13.35 -8.4 -13.8 -8.65 -13.8 Q-10.05 -13.3 -11.15 -14.05 L-11.4 -14.1 Q-11.3 -14.3 -11.55 -14.5 L-11.6 -14.5 -11.7 -14.45 -11.8 -14.25 -12.0 -14.15 -13.95 -13.15 -14.45 -11.75 Q-14.85 -9.15 -13.35 -7.0 L-13.3 -5.15 Q-13.05 -2.05 -13.4 1.0 -14.05 1.8 -13.8 2.75 -12.45 7.5 -13.35 12.25 L-13.7 12.65 -14.6 13.6 -14.75 14.5 -14.75 15.35 -14.0 16.45 -13.75 16.85 -13.75 16.9 -13.7 16.95 -13.25 17.7 -16.3 17.7 -16.0 14.5 -16.1 13.35 -16.25 13.2 Q-16.25 12.4 -16.6 11.8 -16.65 11.2 -16.95 10.75 -17.15 9.8 -16.95 8.9 -15.3 4.05 -16.1 -1.3 L-16.25 -1.5 -16.25 -1.55 -16.55 -6.75 -16.65 -6.75 -16.55 -1.2 -16.4 -1.05 -16.4 -0.95 Q-15.95 2.3 -16.4 5.65 L-16.55 5.8 -16.75 7.4 -16.9 7.55 Q-16.8 8.25 -17.25 8.7 -17.35 11.1 -16.55 13.35 L-16.4 13.65 -16.4 13.7 -16.3 15.1 -16.35 15.2 -16.6 17.7 -17.95 17.75 -18.25 17.2 -19.0 15.4 -19.5 10.35 -19.35 10.1 Q-18.15 8.15 -18.1 5.85 -18.05 0.2 -18.7 -5.4 L-18.65 -5.45 -18.5 -5.35 Q-18.1 -5.2 -17.7 -5.55 L-17.6 -6.25 Q-17.65 -7.2 -17.25 -8.0 -17.0 -8.0 -16.8 -8.15 L-16.75 -8.25 -16.45 -8.5 -16.4 -8.4 -16.35 -8.35 -15.8 -7.75 -15.35 -7.75 -15.25 -7.8 -15.2 -7.8 -15.1 -7.65 -15.1 -7.95 -14.95 -8.2 -15.05 -8.3 -14.85 -9.15 -14.8 -9.25 -14.8 -11.25 -14.95 -11.55 -14.95 -11.6 -14.95 -12.3 Q-14.8 -12.4 -14.8 -12.6 L-14.8 -12.7 -14.8 -13.05 Q-15.85 -13.7 -16.7 -14.6 L-16.7 -14.65 Q-16.3 -16.15 -16.3 -17.6 L-13.8 -15.3 -13.65 -15.35 -13.55 -15.4 -13.5 -15.5 -13.4 -15.6 -13.45 -15.65 -13.55 -15.7 -13.75 -15.7 -13.85 -15.7 -15.3 -17.2 Q-16.0 -18.15 -17.0 -18.75 L-17.05 -19.15 -16.85 -19.2 -14.15 -19.55 -14.05 -19.55 -14.25 -19.15 -14.3 -19.1 -14.3 -18.85 -14.3 -18.75 -14.3 -18.55 -14.2 -18.2 -14.15 -18.05 -14.05 -17.95 -13.95 -17.85 -13.9 -17.7 -13.85 -17.6 -13.7 -17.25 -13.6 -17.15 -13.6 -16.7 -13.9 -16.7 -14.05 -16.7 -14.05 -16.65 -14.0 -16.55 -13.65 -16.35 -13.65 -16.2 Q-8.4 -15.0 -3.75 -16.9 L-4.25 -16.45 Q-3.9 -16.35 -3.5 -16.75 L-2.5 -17.25 Q-1.2 -17.4 -0.45 -17.85" fill="url(#gradient0)" fill-rule="evenodd" stroke="none"/>
    <path d="M-19.5 9.7 L-19.55 9.1 -19.55 7.5 -19.6 7.0 -19.55 -2.05 Q-19.25 -1.95 -19.05 -2.2 L-19.0 -3.35 Q-18.95 -4.85 -19.45 -5.95 L-19.45 -6.7 -19.0 -6.6 -19.0 -6.35 -18.95 -5.9 Q-18.9 -2.25 -18.3 1.45 -17.6 5.75 -19.5 9.65 L-19.5 9.7" fill="url(#gradient1)" fill-rule="evenodd" stroke="none"/>
    <path d="M-13.15 4.5 L-13.15 4.55 -13.15 4.5 M-9.95 5.7 L-9.95 6.0 -10.1 5.8 -10.05 5.8 -10.0 5.7 -9.95 5.7" fill="url(#gradient2)" fill-rule="evenodd" stroke="none"/>
    <path d="M0.55 0.9 L0.6 0.95 0.45 1.05 0.55 0.9 M0.35 3.1 L0.45 3.1 0.45 3.15 0.35 3.1" fill="url(#gradient3)" fill-rule="evenodd" stroke="none"/>
    <path d="M18.15 16.95 L17.8 18.15 17.65 18.3 16.2 18.15 13.6 18.3 Q6.05 19.8 -1.5 18.65 L-13.0 17.7 -13.1 17.6 -13.55 16.95 Q-11.05 17.85 -7.95 17.6 -7.45 17.4 -7.25 16.95 L-7.2 16.85 -6.95 16.8 Q-0.55 18.3 5.5 16.05 L9.65 15.5 9.95 15.85 10.0 15.95 11.65 16.4 Q13.0 16.65 14.45 16.4 16.3 16.15 18.05 17.0 L18.15 16.95" fill="url(#gradient4)" fill-rule="evenodd" stroke="none"/>
    <path d="M13.7 12.5 L13.6 11.55 13.5 10.95 13.45 10.35 13.35 9.35 17.35 9.85 17.45 9.95 17.45 10.2 Q17.4 11.95 17.7 13.65 L17.55 13.8 17.55 13.9 17.4 14.65 16.75 14.65 15.65 14.85 15.7 14.7 15.7 14.65 15.45 14.6 15.3 14.6 13.7 12.5" fill="url(#gradient5)" fill-rule="evenodd" stroke="none"/>
    <path d="M0.85 3.5 L1.0 3.85 1.05 3.95 1.1 4.4 1.05 4.6 0.95 4.65 0.75 4.65 0.7 4.65 0.6 4.6 0.4 4.35 0.3 4.15 0.2 3.9 0.15 3.5 0.25 3.15 0.35 3.1 0.45 3.15 0.85 3.5" fill="url(#gradient6)" fill-rule="evenodd" stroke="none"/>
    <path d="M-8.65 2.0 L-8.65 2.05 -9.1 2.4 -9.2 2.5 -9.4 2.6 -9.4 2.5 -9.25 2.3 -9.2 2.25 -9.15 1.95 Q-8.95 1.95 -8.9 1.8 L-8.75 1.7 -8.7 1.75 -8.65 1.95 -8.65 2.0" fill="url(#gradient7)" fill-rule="evenodd" stroke="none"/>
    <path d="M8.5 1.55 L14.75 1.6 15.3 2.3 15.45 2.55 15.75 3.0 16.65 4.2 16.65 4.4 16.7 4.6 16.75 4.75 16.4 5.9 16.3 6.15 16.15 6.6 15.85 7.85 15.8 7.9 15.6 7.95 15.3 7.75 Q13.45 6.45 11.25 6.3 L11.15 6.35 11.1 6.45 11.05 6.5 10.7 6.45 Q10.35 6.25 10.2 6.55 L10.2 6.9 10.2 7.45 10.2 7.95 10.15 8.05 10.05 8.15 10.05 8.25 10.05 8.5 10.05 8.6 10.05 8.75 10.05 9.55 9.8 10.25 8.3 10.4 8.25 10.8 8.05 11.85 7.8 12.85 7.45 13.95 6.7 13.95 5.4 14.75 6.35 13.55 6.4 13.2 Q7.0 10.25 6.45 7.35 L6.0 7.15 1.45 7.35 1.3 7.45 1.1 7.55 1.05 7.2 0.95 4.65 1.05 4.6 1.1 4.4 1.05 3.95 1.0 3.85 0.85 3.5 0.85 3.4 0.8 3.3 Q0.75 2.5 0.2 2.0 L0.1 2.0 0.45 3.1 0.35 3.1 0.25 3.15 0.15 3.5 -1.55 3.55 Q-3.8 2.75 -6.25 2.85 L-7.15 2.1 -7.45 1.9 -7.65 1.85 -8.7 1.75 -8.75 1.7 -8.75 1.55 -8.6 1.3 Q-8.05 0.45 -8.25 -0.6 L-8.4 -1.15 -8.25 -1.5 -8.5 -1.6 -8.6 -2.1 -8.65 -2.2 -8.75 -2.3 -8.85 -2.8 -8.95 -4.45 -9.05 -4.55 -9.1 -4.65 -9.15 -5.25 -8.8 -8.4 -8.85 -8.2 -8.8 -8.1 -8.4 -7.7 -8.2 -7.65 -8.1 -7.6 -8.05 -7.55 -7.95 -7.4 -7.0 -6.4 -6.95 -6.3 -6.9 -6.15 -6.85 -6.05 Q-6.65 -6.05 -6.6 -5.85 L-6.4 -5.5 -6.2 -5.45 -6.1 -5.4 -6.05 -5.35 -5.9 -5.1 -5.5 -4.65 -5.45 -4.55 -5.45 -4.5 -5.4 -4.4 -5.35 -4.3 -5.2 -4.2 -5.05 -3.85 -4.75 -3.4 -4.75 -3.35 -4.75 -3.25 -4.75 -3.15 -4.55 -2.8 -4.25 -2.35 -4.25 -2.2 -4.25 -2.1 -4.2 -2.0 Q-3.25 -0.75 -1.75 -0.45 L-1.75 -0.4 -0.55 0.4 -0.4 0.65 0.15 1.15 0.4 1.05 0.45 1.05 0.45 1.2 0.45 1.4 0.45 1.55 0.55 1.7 0.75 1.9 0.85 1.8 0.8 1.55 0.75 1.3 0.8 1.15 1.45 0.75 2.05 0.95 4.3 1.35 5.2 1.5 5.85 1.7 8.5 1.55" fill="url(#gradient8)" fill-rule="evenodd" stroke="none"/>
    <path d="M-13.45 -11.45 L-13.35 -10.8 -13.65 -10.85 -13.75 -10.75 -13.95 -10.6 -13.95 -10.5 -8.75 -9.3 -8.9 -9.15 -9.25 -7.35 -9.3 -7.3 -9.4 -7.2 -9.4 -6.55 -9.4 -4.4 -9.3 -4.3 -9.25 -4.2 -9.25 -3.85 -9.25 -3.7 -9.35 -3.6 -9.4 -3.4 -9.4 -3.35 -9.4 -3.25 -9.35 -3.15 -9.25 -3.05 -9.2 -2.6 Q-9.2 -1.1 -9.55 0.35 L-9.95 0.85 -9.95 0.95 -9.95 1.1 -10.05 1.2 Q-10.6 2.6 -10.6 4.15 L-10.95 3.9 -10.95 3.85 -10.95 3.8 -10.95 3.7 Q-11.5 2.8 -12.45 2.45 L-12.55 2.25 -12.3 1.45 Q-11.45 -2.95 -11.95 -7.4 L-12.0 -7.5 -12.05 -7.5 -12.1 -7.6 Q-10.75 -8.35 -9.35 -8.7 L-9.35 -8.8 -9.55 -9.15 -9.7 -9.2 -13.8 -10.35 -14.0 -10.15 -13.95 -9.55 -14.0 -9.1 -14.1 -9.1 -14.25 -10.9 -13.75 -11.25 -13.45 -11.45" fill="url(#gradient9)" fill-rule="evenodd" stroke="none"/>
    <path d="M-13.15 -7.25 L-13.1 -7.3 -13.0 -7.3 Q-12.8 -7.45 -12.8 -7.2 L-12.8 -7.1 -12.4 -6.65 Q-12.65 -5.4 -12.45 -4.0 -11.9 -0.8 -13.15 1.85 L-13.1 2.7 -13.25 2.95 -13.2 3.75 -13.35 3.8 Q-13.55 2.75 -13.3 1.85 L-13.05 1.1 -12.95 -0.85 -13.05 -7.15 -13.15 -7.25" fill="url(#gradient10)" fill-rule="evenodd" stroke="none"/>
    <path d="M-19.45 -7.15 L-19.45 -13.45 -19.4 -17.95 -18.55 -18.5 -17.65 -18.55 -17.35 -18.5 -17.25 -18.4 -17.25 -18.35 -17.2 -18.3 -17.0 -18.2 -16.65 -17.9 Q-16.8 -17.8 -16.55 -17.5 L-16.55 -17.4 -16.75 -15.85 -16.9 -15.65 -16.9 -15.6 -17.1 -14.1 -15.1 -12.8 -15.25 -12.45 -15.25 -12.4 -15.25 -11.35 -15.1 -11.05 -15.1 -11.0 -15.0 -10.1 Q-15.0 -9.6 -15.25 -9.2 L-15.35 -8.15 -15.4 -8.05 -15.55 -8.1 -16.3 -8.85 -16.35 -10.4 -16.75 -11.05 -17.05 -11.75 Q-17.6 -14.7 -17.6 -17.8 -18.45 -14.15 -17.05 -10.6 L-16.45 -8.9 -16.5 -8.9 -17.05 -8.4 -17.4 -8.3 -17.7 -7.65 -17.95 -5.9 -18.0 -5.8 Q-18.35 -5.55 -18.5 -5.9 L-18.55 -6.15 -18.45 -6.65 Q-18.9 -7.2 -19.45 -7.15" fill="url(#gradient11)" fill-rule="evenodd" stroke="none"/>
    <path d="M-17.65 -18.95 L-17.3 -19.05 -17.3 -18.95 -17.4 -18.95 -17.6 -18.95 -17.65 -18.95" fill="url(#gradient12)" fill-rule="evenodd" stroke="none"/>
    <path d="M1.0 -11.25 L2.45 -11.25 3.8 -11.45 8.7 -12.9 10.5 -12.75 Q12.15 -12.15 13.8 -12.75 L14.75 -12.95 13.1 -12.35 11.3 -12.4 10.4 -12.6 Q6.9 -12.5 3.85 -10.6 3.35 -10.25 2.85 -10.6 L1.0 -11.25" fill="url(#gradient13)" fill-rule="evenodd" stroke="none"/>
    <path d="M5.9 -6.4 L5.85 -6.4 Q4.2 -7.85 3.05 -9.85 L3.5 -9.8 3.6 -9.6 Q5.0 -7.5 6.95 -5.75 L5.9 -6.4" fill="url(#gradient14)" fill-rule="evenodd" stroke="none"/>
    <path d="M1.85 -1.75 Q1.0 -2.1 0.5 -2.9 L-0.25 -4.55 -2.05 -7.35 -1.7 -7.35 Q0.6 -6.3 2.25 -4.45 L2.6 -4.0 Q3.8 -3.25 4.9 -2.9 L4.9 -2.85 4.95 -2.7 5.0 -2.5 5.0 -2.45 4.5 -2.45 4.1 -2.6 3.95 -2.55 3.25 -2.2 3.2 -2.05 2.95 -1.75 2.8 -1.55 1.85 -1.75" fill="url(#gradient15)" fill-rule="evenodd" stroke="none"/>
    <path d="M-11.95 -10.5 L-11.85 -10.7 -6.95 -9.95 -5.55 -10.05 -1.8 -10.95 Q-2.95 -10.65 -3.75 -10.0 L-5.65 -9.35 -7.05 -9.3 -11.95 -10.5" fill="url(#gradient16)" fill-rule="evenodd" stroke="none"/>
    <path d="M18.3 16.3 L18.25 16.6 17.55 16.1 16.3 15.5 12.1 16.0 10.95 15.55 10.4 15.4 9.95 14.9 9.85 14.85 8.45 14.85 7.3 15.15 Q2.3 16.75 -3.0 16.55 L-4.7 16.2 Q-6.85 15.4 -8.15 17.0 L-12.9 16.65 -13.05 16.4 -13.2 16.35 -13.45 16.45 -13.65 16.55 -13.7 16.6 -13.7 16.65 -13.8 16.65 -14.15 15.8 -14.05 15.75 Q-13.95 16.05 -13.45 16.1 L-10.9 16.45 Q-9.3 16.9 -8.5 15.95 L-8.3 15.75 -5.35 15.7 -1.35 16.1 Q3.2 16.5 6.9 14.25 L7.35 14.3 7.25 14.45 7.75 14.3 10.35 13.8 Q11.75 15.15 13.65 15.5 L14.6 15.3 15.25 15.05 15.35 15.05 15.45 15.0 17.2 14.95 17.2 15.05 17.25 15.4 17.45 15.2 17.55 15.55 18.3 16.3" fill="url(#gradient17)" fill-rule="evenodd" stroke="none"/>
    <path d="M17.3 -6.2 L17.4 -4.75 Q17.45 -3.25 17.8 -1.8 17.5 -0.45 18.25 0.45 L18.3 2.2 18.2 3.15 18.0 4.95 17.95 4.6 17.5 -0.7 Q17.2 -3.5 17.3 -6.2 M18.15 7.7 L18.4 8.85 Q19.45 12.45 18.4 15.95 L18.05 15.65 17.75 14.95 17.95 14.75 17.95 14.65 18.0 14.6 18.05 14.4 18.05 14.35 18.2 13.7 18.3 13.6 18.35 13.5 18.3 13.05 18.35 10.1 18.25 10.0 18.2 9.9 18.15 7.7" fill="url(#gradient18)" fill-rule="evenodd" stroke="none"/>
    <path d="M5.2 -6.4 L5.15 -6.35 2.05 -9.85 2.4 -9.75 5.2 -6.4" fill="url(#gradient19)" fill-rule="evenodd" stroke="none"/>
    <path d="M2.0 -10.35 L0.3 -10.85 0.2 -10.9 2.0 -10.35" fill="url(#gradient20)" fill-rule="evenodd" stroke="none"/>
    <path d="M6.8 -4.8 L6.85 -4.9 Q6.8 -5.1 7.05 -5.15 L7.05 -5.3 7.1 -5.6 7.2 -5.15 6.95 -4.45 5.45 -5.45 6.8 -4.8" fill="url(#gradient21)" fill-rule="evenodd" stroke="none"/>
    <path d="M6.55 -5.3 L6.5 -5.4 6.05 -5.9 Q6.85 -5.7 6.55 -5.3" fill="url(#gradient22)" fill-rule="evenodd" stroke="none"/>
    <path d="M5.0 1.2 Q5.8 0.25 7.6 0.85 L8.45 0.7 11.05 -1.55 11.25 -1.4 11.35 -1.35 Q10.55 0.6 8.95 1.35 L8.5 1.55 5.85 1.7 5.2 1.5 4.9 1.25 5.0 1.2" fill="url(#gradient23)" fill-rule="evenodd" stroke="none"/>
    <path d="M0.8 6.35 L0.8 7.8 1.15 7.9 1.5 7.6 5.55 7.1 6.25 7.6 6.6 9.85 Q6.9 13.45 4.1 15.05 1.95 12.75 -0.45 14.05 L-0.6 14.0 -0.45 14.05 -0.85 14.25 -0.85 14.4 -0.8 14.7 1.05 14.85 2.3 15.5 -2.65 15.7 -5.2 15.4 Q-7.25 14.95 -8.8 15.75 L-8.8 15.85 -8.85 16.0 -8.9 16.1 -13.75 15.7 -13.9 15.55 -14.05 15.75 -14.15 15.8 Q-14.45 14.9 -14.35 13.9 L-14.3 13.85 -14.05 13.7 -13.65 13.15 -13.05 12.45 -12.9 11.6 -12.6 10.85 -12.85 6.1 -13.15 4.55 -13.15 4.5 -13.05 4.5 -12.4 5.8 -12.25 5.75 -12.2 5.7 -11.95 5.6 -11.95 5.55 -11.1 5.45 -10.5 5.8 -10.45 6.05 -9.95 6.4 -9.85 8.8 Q-11.05 9.9 -11.85 11.25 L-11.8 11.35 -11.75 11.5 -11.7 11.6 -11.55 11.8 -11.5 11.95 -9.5 14.15 -9.45 14.45 -9.4 14.6 -9.35 14.65 -8.95 14.6 Q-9.8 13.0 -11.2 11.8 L-11.3 11.5 -11.45 11.15 -9.6 9.15 -9.6 9.1 Q-8.5 9.25 -7.85 8.05 -5.55 7.9 -3.6 9.05 -2.2 9.3 -1.15 8.55 L-1.1 8.35 -1.1 8.25 -0.9 8.0 -0.35 7.35 -0.2 7.2 0.25 6.85 0.35 6.6 0.5 6.4 0.8 6.35" fill="url(#gradient24)" fill-rule="evenodd" stroke="none"/>
    <path d="M0.2 3.9 L-1.7 3.85 Q-3.9 2.95 -6.3 3.3 L-6.8 2.85 -7.6 2.2 -8.65 2.0 -8.65 1.95 -8.7 1.75 -7.65 1.85 -7.45 1.9 -7.15 2.1 -6.25 2.85 Q-3.8 2.75 -1.55 3.55 L0.15 3.5 0.2 3.9" fill="url(#gradient25)" fill-rule="evenodd" stroke="none"/>
    <path d="M0.8 6.2 L0.9 6.25 0.85 6.25 0.85 6.3 0.8 6.35 0.5 6.4 0.35 6.6 0.25 6.85 -0.2 7.2 -0.35 7.35 -0.9 8.0 -1.1 8.25 -1.1 8.35 -1.15 8.55 Q-2.2 9.3 -3.6 9.05 -5.55 7.9 -7.85 8.05 -8.5 9.25 -9.6 9.1 L-9.2 8.8 -8.9 8.7 -8.4 8.25 -8.35 8.1 -8.15 7.9 -8.1 7.75 -4.95 8.0 Q-3.6 9.0 -1.95 8.6 L-1.9 8.5 -1.75 8.4 -1.55 8.35 -1.45 8.25 -1.35 8.0 -1.25 7.9 -1.15 7.85 -0.9 7.35 -0.85 7.2 0.3 6.2 0.5 6.05 0.8 6.2" fill="url(#gradient26)" fill-rule="evenodd" stroke="none"/>
    <path d="M0.7 4.65 L0.8 6.2 0.5 6.05 0.3 6.2 -0.85 7.2 -0.9 7.35 -1.15 7.85 -1.25 7.9 -1.35 8.0 -1.45 8.25 -1.55 8.35 -1.75 8.4 -1.9 8.5 -1.95 8.6 Q-3.6 9.0 -4.95 8.0 L-8.1 7.75 -8.15 7.9 -8.35 8.1 -8.4 8.25 -8.9 8.7 -9.2 8.8 -9.6 9.1 -9.55 8.55 -9.55 7.9 -9.3 7.6 -9.3 7.5 -9.3 7.15 -9.6 6.55 -9.65 5.0 -9.75 4.9 -9.8 4.85 -9.85 4.4 -9.9 4.2 -9.7 4.1 -9.4 2.6 -9.2 2.5 -9.1 2.4 -8.65 2.05 -8.65 2.0 -7.6 2.2 -6.8 2.85 -6.3 3.3 Q-3.9 2.95 -1.7 3.85 L0.2 3.9 0.3 4.15 0.4 4.35 0.6 4.6 0.7 4.65" fill="url(#gradient27)" fill-rule="evenodd" stroke="none"/>
    <path d="M17.05 -12.55 L17.0 -12.45 16.8 -12.4 16.65 -12.35 16.65 -12.3 Q14.7 -12.5 12.95 -11.6 L12.9 -11.55 Q12.8 -11.4 12.85 -11.25 L12.85 -11.2 12.95 -11.1 16.9 -10.75 16.9 -10.25 16.8 -10.35 16.7 -10.4 16.6 -10.5 Q13.35 -11.4 10.3 -10.6 L10.1 -10.7 7.1 -11.75 8.05 -11.9 8.15 -12.0 8.25 -12.1 9.1 -12.35 10.4 -12.25 13.05 -12.2 Q15.05 -13.3 17.05 -12.55" fill="url(#gradient28)" fill-rule="evenodd" stroke="none"/>
    <path d="M15.95 -18.85 Q8.7 -18.9 1.3 -18.45 L0.05 -18.2 0.05 -18.25 -0.1 -18.25 Q-2.15 -18.15 -3.55 -17.1 -8.3 -15.9 -13.35 -16.4 L-13.35 -16.45 -13.3 -16.6 -13.3 -16.7 -13.3 -16.85 -13.3 -16.95 -13.3 -17.3 -13.35 -17.4 -13.25 -19.55 Q-13.1 -19.15 -12.75 -19.2 L-12.75 -19.3 -12.9 -19.6 -11.95 -19.55 Q-11.25 -19.5 -10.8 -19.8 L-9.85 -19.6 1.65 -19.8 13.45 -19.9 13.65 -19.8 Q14.75 -19.25 15.95 -18.85" fill="url(#gradient29)" fill-rule="evenodd" stroke="none"/>
    <path d="M17.45 -14.7 L17.35 -14.25 17.25 -14.3 14.65 -14.5 14.1 -14.35 11.95 -14.2 Q7.55 -15.05 3.75 -12.75 -0.1 -13.1 -3.75 -11.9 -6.3 -11.05 -8.95 -11.9 -11.3 -12.7 -13.15 -11.65 -11.15 -12.95 -8.6 -12.25 L-7.75 -12.95 -7.7 -12.95 -7.1 -12.6 -7.0 -12.6 -6.85 -12.7 -6.85 -12.8 Q-2.4 -12.65 1.95 -13.75 L3.05 -14.25 Q5.75 -16.2 8.8 -15.55 L9.05 -15.55 9.15 -15.6 9.25 -15.75 11.95 -15.85 Q14.95 -16.6 17.45 -14.7" fill="url(#gradient30)" fill-rule="evenodd" stroke="none"/>
    <path d="M-7.55 -13.15 L-7.2 -13.55 -5.85 -14.9 -1.45 -14.25 -1.25 -14.45 -0.7 -15.0 -0.15 -15.5 0.2 -15.6 0.4 -15.75 0.45 -15.85 Q3.7 -17.9 7.05 -16.55 L7.05 -16.45 6.95 -16.45 Q5.75 -16.25 4.75 -15.55 3.05 -14.35 0.95 -14.1 L-1.2 -13.85 -7.55 -13.15" fill="url(#gradient31)" fill-rule="evenodd" stroke="none"/>
    <path d="M16.9 -9.0 L17.05 -7.8 17.05 -7.2 17.3 -0.95 17.25 -0.95 Q15.25 -0.7 14.25 -2.1 L14.25 -2.2 14.25 -2.3 14.2 -2.35 14.15 -2.45 13.45 -3.2 Q13.25 -3.6 13.2 -4.05 L13.1 -4.15 12.95 -4.3 12.85 -4.45 12.15 -4.6 Q10.8 -4.45 9.9 -3.6 L5.05 -3.0 2.55 -4.65 2.5 -4.6 Q0.45 -6.75 -2.25 -7.85 L-2.45 -7.8 -2.4 -7.35 -2.25 -6.9 -1.5 -5.65 Q-0.95 -4.45 -0.05 -3.55 L0.1 -3.1 Q0.75 -1.5 2.55 -1.3 L2.65 -1.25 2.95 -1.2 3.25 -1.65 4.2 -2.3 4.4 -2.2 4.7 -2.15 5.05 -2.05 5.15 -2.15 5.3 -2.35 5.35 -2.5 8.95 -3.15 9.75 -3.45 Q11.05 -4.35 12.65 -4.15 L13.2 -3.15 Q13.45 -2.6 13.95 -2.15 L13.95 -2.05 13.95 -2.0 13.95 -1.9 14.35 -1.4 14.8 -1.0 17.3 -0.85 17.55 5.15 17.35 5.3 17.3 5.65 16.95 6.8 Q16.2 8.6 17.25 9.75 15.3 9.6 13.5 8.9 L13.4 8.95 13.05 9.05 13.0 9.1 13.0 9.2 13.0 9.35 13.1 9.9 13.1 10.15 13.2 10.25 13.25 10.35 13.25 10.6 13.25 10.7 13.25 11.05 13.25 11.3 13.3 11.55 13.45 12.3 13.05 12.15 12.95 12.2 Q12.7 12.35 12.75 12.55 L12.8 12.75 14.45 14.95 13.8 14.95 13.65 14.9 Q11.75 14.65 10.1 13.45 L7.9 13.95 7.9 13.75 7.9 13.5 8.05 13.05 8.35 11.8 8.4 11.75 8.5 11.65 8.5 11.35 8.5 11.1 8.6 10.75 9.9 10.6 10.25 10.15 10.3 10.05 10.35 9.15 10.35 8.4 10.45 8.3 10.5 8.2 10.5 7.85 10.5 7.35 10.5 6.8 10.6 6.85 Q11.1 7.05 11.35 6.7 L11.75 6.65 Q12.35 6.75 12.8 7.0 14.45 7.95 16.1 8.15 L16.2 7.6 16.5 6.6 16.85 5.6 Q17.15 4.75 16.9 3.95 L16.35 3.3 16.25 3.15 15.85 2.6 15.1 1.45 Q12.05 1.25 8.95 1.35 10.55 0.6 11.35 -1.35 L11.25 -1.4 11.05 -1.55 8.45 0.7 7.6 0.85 Q5.8 0.25 5.0 1.2 L1.5 0.5 1.1 0.55 0.6 0.95 0.55 0.9 0.35 0.45 0.0 -0.05 Q-0.55 -0.45 -1.2 -0.65 L-1.3 -0.75 -2.5 -1.5 -3.1 -1.65 -3.35 -1.9 -3.65 -2.45 -3.65 -2.65 -3.65 -2.7 -3.7 -2.8 -4.05 -3.25 -4.2 -3.75 -4.45 -4.05 -4.65 -4.45 -4.8 -4.75 -4.95 -5.0 -5.05 -5.1 -5.3 -5.25 -5.5 -5.5 -7.4 -7.65 -7.4 -7.75 -7.45 -7.8 -7.45 -7.9 -7.55 -8.0 -8.55 -8.6 -8.8 -8.4 -8.75 -8.7 -8.6 -8.95 -8.5 -9.15 -8.25 -9.15 -7.05 -8.95 -5.35 -9.2 -3.3 -10.05 -1.8 -10.65 0.0 -10.5 Q3.0 -8.3 5.2 -5.1 L5.35 -5.0 Q6.3 -4.3 7.2 -4.2 L7.35 -4.8 7.55 -5.5 6.45 -6.7 Q4.7 -8.2 3.6 -10.15 L3.55 -10.25 Q5.0 -11.25 6.7 -11.65 8.45 -10.9 10.55 -10.3 L15.35 -10.45 15.5 -10.35 15.6 -10.25 Q16.25 -10.5 16.55 -10.05 L16.75 -9.7 16.8 -9.3 16.9 -9.0" fill="url(#gradient32)" fill-rule="evenodd" stroke="none"/>
  </g>
  <defs>
    <linearGradient gradientTransform="matrix(0.0247, 0.0, 0.0, 0.0244, 0.15, -0.15)" gradientUnits="userSpaceOnUse" id="gradient0" spreadMethod="pad" x1="-819.2" x2="819.2">
      <stop offset="0.0" stop-color="#f5fbfc"/>
      <stop offset="0.3137254901960784" stop-color="#9fdcea"/>
      <stop offset="0.7647058823529411" stop-color="#dcf4f8"/>
    </linearGradient>
    <linearGradient gradientTransform="matrix(0.0011, 0.0, 0.0, 0.0106, -19.0, 1.75)" gradientUnits="userSpaceOnUse" id="gradient1" spreadMethod="pad" x1="-819.2" x2="819.2">
      <stop offset="0.0" stop-color="#234b61"/>
      <stop offset="1.0" stop-color="#9fdcea"/>
    </linearGradient>
    <linearGradient gradientTransform="matrix(0.0128, 0.0, 0.0, 0.0071, -3.9, 10.3)" gradientUnits="userSpaceOnUse" id="gradient2" spreadMethod="pad" x1="-819.2" x2="819.2">
      <stop offset="0.0" stop-color="#234b61"/>
      <stop offset="1.0" stop-color="#9fdcea"/>
    </linearGradient>
    <linearGradient gradientTransform="matrix(0.0168, 0.0, 0.0, 0.0162, 3.75, 1.65)" gradientUnits="userSpaceOnUse" id="gradient3" spreadMethod="pad" x1="-819.2" x2="819.2">
      <stop offset="0.0" stop-color="#234b61"/>
      <stop offset="1.0" stop-color="#9fdcea"/>
    </linearGradient>
    <linearGradient gradientTransform="matrix(0.0194, 0.0, 0.0, 0.0032, 2.3, 18.1)" gradientUnits="userSpaceOnUse" id="gradient4" spreadMethod="pad" x1="-819.2" x2="819.2">
      <stop offset="0.0" stop-color="#234b61"/>
      <stop offset="1.0" stop-color="#0b2d31"/>
    </linearGradient>
    <linearGradient gradientTransform="matrix(0.0027, 0.0, 0.0, 0.0034, 15.5, 12.1)" gradientUnits="userSpaceOnUse" id="gradient5" spreadMethod="pad" x1="-819.2" x2="819.2">
      <stop offset="0.0" stop-color="#234b61"/>
      <stop offset="1.0" stop-color="#0b2d31"/>
    </linearGradient>
    <linearGradient gradientTransform="matrix(6.0E-4, 0.0, 0.0, 9.0E-4, 0.6, 3.85)" gradientUnits="userSpaceOnUse" id="gradient6" spreadMethod="pad" x1="-819.2" x2="819.2">
      <stop offset="0.0" stop-color="#234b61"/>
      <stop offset="1.0" stop-color="#0b2d31"/>
    </linearGradient>
    <linearGradient gradientTransform="matrix(8.0E-4, 0.0, 0.0, 6.0E-4, -9.3, 2.05)" gradientUnits="userSpaceOnUse" id="gradient7" spreadMethod="pad" x1="-819.2" x2="819.2">
      <stop offset="0.0" stop-color="#234b61"/>
      <stop offset="1.0" stop-color="#0b2d31"/>
    </linearGradient>
    <linearGradient gradientTransform="matrix(0.0168, 0.0, 0.0, 0.0162, 3.75, 1.65)" gradientUnits="userSpaceOnUse" id="gradient8" spreadMethod="pad" x1="-819.2" x2="819.2">
      <stop offset="0.0" stop-color="#f5fbfc"/>
      <stop offset="0.3137254901960784" stop-color="#9fdcea"/>
      <stop offset="0.7647058823529411" stop-color="#dcf4f8"/>
    </linearGradient>
    <linearGradient gradientTransform="matrix(0.0034, 0.0, 0.0, 0.0095, -11.55, -3.65)" gradientUnits="userSpaceOnUse" id="gradient9" spreadMethod="pad" x1="-819.2" x2="819.2">
      <stop offset="0.0" stop-color="#f5fbfc"/>
      <stop offset="0.3137254901960784" stop-color="#9fdcea"/>
      <stop offset="0.7647058823529411" stop-color="#dcf4f8"/>
    </linearGradient>
    <linearGradient gradientTransform="matrix(7.0E-4, 0.0, 0.0, 0.0068, -12.9, -1.8)" gradientUnits="userSpaceOnUse" id="gradient10" spreadMethod="pad" x1="-819.2" x2="819.2">
      <stop offset="0.0" stop-color="#f5fbfc"/>
      <stop offset="0.3137254901960784" stop-color="#9fdcea"/>
      <stop offset="0.7647058823529411" stop-color="#dcf4f8"/>
    </linearGradient>
    <linearGradient gradientTransform="matrix(0.0031, 0.0, 0.0, 0.0081, -17.55, -12.3)" gradientUnits="userSpaceOnUse" id="gradient11" spreadMethod="pad" x1="-819.2" x2="819.2">
      <stop offset="0.0" stop-color="#f5fbfc"/>
      <stop offset="0.3137254901960784" stop-color="#9fdcea"/>
      <stop offset="0.7647058823529411" stop-color="#dcf4f8"/>
    </linearGradient>
    <linearGradient gradientTransform="matrix(0.0016, 0.0, 0.0, 9.0E-4, -18.6, -19.65)" gradientUnits="userSpaceOnUse" id="gradient12" spreadMethod="pad" x1="-819.2" x2="819.2">
      <stop offset="0.0" stop-color="#f5fbfc"/>
      <stop offset="0.3137254901960784" stop-color="#9fdcea"/>
      <stop offset="0.7647058823529411" stop-color="#dcf4f8"/>
    </linearGradient>
    <linearGradient gradientTransform="matrix(0.0084, 0.0, 0.0, 0.0015, 7.85, -11.7)" gradientUnits="userSpaceOnUse" id="gradient13" spreadMethod="pad" x1="-819.2" x2="819.2">
      <stop offset="0.0" stop-color="#f5fbfc"/>
      <stop offset="0.3137254901960784" stop-color="#9fdcea"/>
      <stop offset="0.7647058823529411" stop-color="#dcf4f8"/>
    </linearGradient>
    <linearGradient gradientTransform="matrix(0.0024, 0.0, 0.0, 0.0026, 5.0, -7.85)" gradientUnits="userSpaceOnUse" id="gradient14" spreadMethod="pad" x1="-819.2" x2="819.2">
      <stop offset="0.0" stop-color="#f5fbfc"/>
      <stop offset="0.3137254901960784" stop-color="#9fdcea"/>
      <stop offset="0.7647058823529411" stop-color="#dcf4f8"/>
    </linearGradient>
    <linearGradient gradientTransform="matrix(0.0043, 0.0, 0.0, 0.0036, 1.45, -4.5)" gradientUnits="userSpaceOnUse" id="gradient15" spreadMethod="pad" x1="-819.2" x2="819.2">
      <stop offset="0.0" stop-color="#f5fbfc"/>
      <stop offset="0.3137254901960784" stop-color="#9fdcea"/>
      <stop offset="0.7647058823529411" stop-color="#dcf4f8"/>
    </linearGradient>
    <linearGradient gradientTransform="matrix(0.0062, 0.0, 0.0, 0.0011, -6.9, -10.1)" gradientUnits="userSpaceOnUse" id="gradient16" spreadMethod="pad" x1="-819.2" x2="819.2">
      <stop offset="0.0" stop-color="#f5fbfc"/>
      <stop offset="0.3137254901960784" stop-color="#9fdcea"/>
      <stop offset="0.7647058823529411" stop-color="#dcf4f8"/>
    </linearGradient>
    <linearGradient gradientTransform="matrix(0.0199, 0.0, 0.0, 0.002, 2.15, 15.4)" gradientUnits="userSpaceOnUse" id="gradient17" spreadMethod="pad" x1="-819.2" x2="819.2">
      <stop offset="0.0" stop-color="#f5fbfc"/>
      <stop offset="0.3137254901960784" stop-color="#9fdcea"/>
      <stop offset="0.7647058823529411" stop-color="#dcf4f8"/>
    </linearGradient>
    <linearGradient gradientTransform="matrix(0.0015, 0.0, 0.0, 0.0162, 18.55, 2.75)" gradientUnits="userSpaceOnUse" id="gradient18" spreadMethod="pad" x1="-819.2" x2="819.2">
      <stop offset="0.0" stop-color="#f5fbfc"/>
      <stop offset="0.3137254901960784" stop-color="#9fdcea"/>
      <stop offset="0.7647058823529411" stop-color="#dcf4f8"/>
    </linearGradient>
    <linearGradient gradientTransform="matrix(0.0019, 0.0, 0.0, 0.0022, 3.6, -8.15)" gradientUnits="userSpaceOnUse" id="gradient19" spreadMethod="pad" x1="-819.2" x2="819.2">
      <stop offset="0.0" stop-color="#234b61"/>
      <stop offset="1.0" stop-color="#9fdcea"/>
    </linearGradient>
    <linearGradient gradientTransform="matrix(0.0011, 0.0, 0.0, 3.0E-4, 1.1, -10.65)" gradientUnits="userSpaceOnUse" id="gradient20" spreadMethod="pad" x1="-819.2" x2="819.2">
      <stop offset="0.0" stop-color="#234b61"/>
      <stop offset="1.0" stop-color="#9fdcea"/>
    </linearGradient>
    <linearGradient gradientTransform="matrix(0.0011, 0.0, 0.0, 7.0E-4, 6.35, -5.05)" gradientUnits="userSpaceOnUse" id="gradient21" spreadMethod="pad" x1="-819.2" x2="819.2">
      <stop offset="0.0" stop-color="#234b61"/>
      <stop offset="1.0" stop-color="#9fdcea"/>
    </linearGradient>
    <linearGradient gradientTransform="matrix(4.0E-4, 0.0, 0.0, 4.0E-4, 6.35, -5.6)" gradientUnits="userSpaceOnUse" id="gradient22" spreadMethod="pad" x1="-819.2" x2="819.2">
      <stop offset="0.0" stop-color="#234b61"/>
      <stop offset="1.0" stop-color="#9fdcea"/>
    </linearGradient>
    <linearGradient gradientTransform="matrix(0.0039, 0.0, 0.0, 0.002, 8.1, 0.1)" gradientUnits="userSpaceOnUse" id="gradient23" spreadMethod="pad" x1="-819.2" x2="819.2">
      <stop offset="0.0" stop-color="#234b61"/>
      <stop offset="1.0" stop-color="#9fdcea"/>
    </linearGradient>
    <linearGradient gradientTransform="matrix(0.0128, 0.0, 0.0, 0.0071, -3.9, 10.3)" gradientUnits="userSpaceOnUse" id="gradient24" spreadMethod="pad" x1="-819.2" x2="819.2">
      <stop offset="0.0" stop-color="#234b61"/>
      <stop offset="0.7686274509803922" stop-color="#8158ef"/>
      <stop offset="1.0" stop-color="#9fdcea"/>
    </linearGradient>
    <linearGradient gradientTransform="matrix(0.0054, 0.0, 0.0, 0.0014, -4.25, 2.9)" gradientUnits="userSpaceOnUse" id="gradient25" spreadMethod="pad" x1="-819.2" x2="819.2">
      <stop offset="0.0" stop-color="#234b61"/>
      <stop offset="0.7686274509803922" stop-color="#8158ef"/>
      <stop offset="1.0" stop-color="#9fdcea"/>
    </linearGradient>
    <linearGradient gradientTransform="matrix(0.0064, 0.0, 0.0, 0.0019, -4.35, 7.55)" gradientUnits="userSpaceOnUse" id="gradient26" spreadMethod="pad" x1="-819.2" x2="819.2">
      <stop offset="0.0" stop-color="#234b61"/>
      <stop offset="0.7686274509803922" stop-color="#8158ef"/>
      <stop offset="1.0" stop-color="#9fdcea"/>
    </linearGradient>
    <linearGradient gradientTransform="matrix(-0.0058, -0.003, 0.0026, -0.005, -5.25, 6.25)" gradientUnits="userSpaceOnUse" id="gradient27" spreadMethod="pad" x1="-819.2" x2="819.2">
      <stop offset="0.0" stop-color="#234b61"/>
      <stop offset="0.7686274509803922" stop-color="#8158ef"/>
      <stop offset="1.0" stop-color="#9fdcea"/>
    </linearGradient>
    <linearGradient gradientTransform="matrix(0.0062, 0.0, 0.0, 0.0021, 12.15, -11.15)" gradientUnits="userSpaceOnUse" id="gradient28" spreadMethod="pad" x1="-819.2" x2="819.2">
      <stop offset="0.0" stop-color="#234b61"/>
      <stop offset="0.7686274509803922" stop-color="#8158ef"/>
      <stop offset="1.0" stop-color="#9fdcea"/>
    </linearGradient>
    <linearGradient gradientTransform="matrix(0.0202, 0.0, 0.0, 0.0025, 3.2, -18.3)" gradientUnits="userSpaceOnUse" id="gradient29" spreadMethod="pad" x1="-819.2" x2="819.2">
      <stop offset="0.0" stop-color="#234b61"/>
      <stop offset="0.7686274509803922" stop-color="#8158ef"/>
      <stop offset="1.0" stop-color="#9fdcea"/>
    </linearGradient>
    <linearGradient gradientTransform="matrix(0.019, 0.0, 0.0, 0.0028, 2.35, -13.8)" gradientUnits="userSpaceOnUse" id="gradient30" spreadMethod="pad" x1="-819.2" x2="819.2">
      <stop offset="0.0" stop-color="#234b61"/>
      <stop offset="0.7686274509803922" stop-color="#8158ef"/>
      <stop offset="1.0" stop-color="#9fdcea"/>
    </linearGradient>
    <linearGradient gradientTransform="matrix(0.0089, 0.0, 0.0, 0.0024, -0.25, -15.15)" gradientUnits="userSpaceOnUse" id="gradient31" spreadMethod="pad" x1="-819.2" x2="819.2">
      <stop offset="0.0" stop-color="#234b61"/>
      <stop offset="0.7686274509803922" stop-color="#8158ef"/>
      <stop offset="1.0" stop-color="#9fdcea"/>
    </linearGradient>
    <linearGradient gradientTransform="matrix(0.0168, 0.0, 0.0, 0.0162, 3.75, 1.65)" gradientUnits="userSpaceOnUse" id="gradient32" spreadMethod="pad" x1="-819.2" x2="819.2">
      <stop offset="0.0" stop-color="#234b61"/>
      <stop offset="0.7686274509803922" stop-color="#8158ef"/>
      <stop offset="1.0" stop-color="#9fdcea"/>
    </linearGradient>
  </defs>
</svg>
