<?xml version="1.0" encoding="UTF-8" standalone="no"?>
<svg xmlns:ffdec="https://www.free-decompiler.com/flash" xmlns:xlink="http://www.w3.org/1999/xlink" ffdec:objectType="shape" height="38.2px" width="38.55px" xmlns="http://www.w3.org/2000/svg">
  <g transform="matrix(1.0, 0.0, 0.0, 1.0, 19.65, 19.9)">
    <path d="M18.25 -18.3 L18.15 -18.0 17.4 -16.1 Q16.4 -14.4 16.1 -12.5 15.8 -10.4 16.95 -8.75 L17.15 -7.0 17.4 -4.75 Q17.5 -2.75 18.0 -0.85 L17.65 5.6 Q17.6 7.25 18.0 8.85 L18.9 11.75 Q19.0 13.85 18.4 15.95 L17.8 18.3 16.2 18.15 14.35 18.2 Q13.0 17.45 11.05 17.95 L10.1 18.1 Q5.75 18.4 1.4 18.0 L-11.2 17.5 -12.25 17.7 -17.95 17.75 -18.25 17.2 -19.0 15.4 -19.5 10.35 Q-19.75 2.9 -19.5 -4.6 -19.4 -9.0 -19.45 -13.45 L-19.4 -17.35 Q-14.25 -19.25 -8.65 -19.55 L-8.3 -19.6 1.65 -19.8 7.8 -19.9 8.05 -19.75 Q9.9 -18.95 12.05 -19.2 13.95 -19.45 15.65 -18.75 L17.3 -18.5 18.15 -18.4 18.2 -18.35 18.25 -18.3" fill="url(#gradient0)" fill-rule="evenodd" stroke="none"/>
  </g>
  <defs>
    <linearGradient gradientTransform="matrix(0.0159, 0.0264, -0.0211, 0.0127, 0.0, -0.1)" gradientUnits="userSpaceOnUse" id="gradient0" spreadMethod="pad" x1="-819.2" x2="819.2">
      <stop offset="0.08627450980392157" stop-color="#f6ffff" stop-opacity="0.68235296"/>
      <stop offset="0.21176470588235294" stop-color="#f6ffff" stop-opacity="0.0"/>
      <stop offset="0.36470588235294116" stop-color="#ffffff"/>
      <stop offset="0.4823529411764706" stop-color="#f9ffff" stop-opacity="0.18039216"/>
      <stop offset="0.6274509803921569" stop-color="#ecfdff"/>
      <stop offset="0.7529411764705882" stop-color="#e1fbfe" stop-opacity="0.0"/>
      <stop offset="0.8666666666666667" stop-color="#d7f9fd"/>
      <stop offset="1.0" stop-color="#f6ffff" stop-opacity="0.0"/>
    </linearGradient>
  </defs>
</svg>
