<?xml version="1.0" encoding="UTF-8" standalone="no"?>
<svg xmlns:ffdec="https://www.free-decompiler.com/flash" xmlns:xlink="http://www.w3.org/1999/xlink" ffdec:objectType="shape" height="38.8px" width="39.85px" xmlns="http://www.w3.org/2000/svg">
  <g transform="matrix(1.0, 0.0, 0.0, 1.0, 20.2, 19.7)">
    <path d="M-16.35 18.2 L-17.0 18.3 Q-18.25 18.45 -18.9 17.45 -20.65 14.85 -20.0 11.65 -19.65 10.0 -19.7 8.2 -19.9 -1.25 -19.65 -10.5 L-19.55 -16.4 Q-19.6 -19.15 -16.3 -19.3 L-0.5 -19.65 18.05 -18.85 18.2 -18.75 18.25 -18.65 18.3 -18.5 18.4 -18.4 18.45 -18.25 18.5 -18.15 18.6 -18.0 17.45 -14.35 Q17.05 -12.9 17.05 -11.4 17.1 -7.15 17.85 -3.0 18.6 1.25 17.95 5.35 L18.2 6.7 18.3 7.55 18.45 7.5 18.7 9.9 18.7 10.25 18.7 10.4 18.8 10.5 18.75 10.15 18.85 10.55 19.1 10.75 Q19.2 11.7 19.65 12.4 L19.25 12.45 19.3 14.85 Q19.1 16.65 18.05 18.1 L12.9 18.65 12.3 18.7 11.7 18.75 Q9.0 18.95 6.3 18.8 L6.3 18.75 9.25 18.35 12.4 18.15 12.5 18.15 13.65 18.25 14.05 18.1 Q15.9 17.45 17.85 17.55 L18.6 15.8 18.95 12.1 18.65 11.05 18.35 10.8 Q18.15 9.45 18.25 8.1 L18.1 7.6 17.5 5.8 17.45 5.55 Q17.95 3.25 17.8 0.95 L16.7 -10.7 16.7 -11.05 Q16.55 -12.95 17.05 -14.75 L18.1 -17.8 18.1 -17.9 18.05 -18.05 18.0 -18.15 17.9 -18.3 17.85 -18.45 -1.2 -19.2 Q-10.1 -19.55 -18.65 -18.0 L-18.9 -17.95 -19.05 -17.65 -19.15 -17.45 -19.25 -17.15 -19.3 -17.05 -19.4 -16.65 -19.45 -16.55 Q-19.05 -14.25 -19.2 -11.9 L-19.45 -2.3 -19.15 16.05 Q-19.15 16.6 -18.75 17.0 -17.7 18.0 -16.35 18.2 M6.3 18.95 L7.8 19.0 6.7 19.05 -3.05 18.4 -12.6 17.85 -12.6 17.9 -12.65 17.95 -13.1 18.0 -13.25 17.9 -13.9 17.95 Q-14.3 18.1 -14.65 18.35 L-16.25 18.2 -16.3 18.2 -16.35 18.1 Q-14.85 17.95 -13.65 17.25 L-13.05 17.3 -12.8 17.5 -12.7 17.6 -8.5 17.4 6.3 18.95 M19.25 12.45 L19.0 12.3 18.95 12.1 19.0 12.3 19.25 12.45 M7.95 -9.35 L8.15 -9.15 8.25 -9.0 8.4 -8.95 9.1 -8.85 9.2 -8.7 9.4 -8.5 9.6 -8.25 10.4 -8.3 11.35 -8.9 12.25 -8.85 Q12.8 -9.0 13.15 -9.45 13.1 -10.05 13.5 -10.45 L14.85 -11.4 15.25 -11.3 15.35 -11.2 15.0 -10.9 13.8 -10.2 13.75 -10.05 13.65 -9.65 13.6 -9.3 13.5 -9.2 12.65 -8.4 12.45 -8.3 11.8 -8.45 11.35 -8.4 11.15 -8.3 10.25 -7.8 9.4 -7.8 9.25 -7.95 9.0 -8.15 8.8 -8.45 8.25 -8.55 Q7.75 -8.6 7.65 -9.05 6.0 -8.4 5.95 -6.7 L5.65 -5.05 5.6 -4.95 5.35 -4.7 5.15 -4.6 Q2.9 -4.75 2.05 -7.1 1.9 -7.45 1.9 -7.9 L1.85 -8.0 1.5 -8.4 1.3 -8.65 1.3 -8.75 1.2 -9.35 Q1.05 -9.65 1.15 -10.0 L0.85 -10.15 -0.55 -10.2 -1.8 -8.85 -2.8 -7.95 -5.6 -8.5 -7.45 -10.4 Q-7.95 -10.95 -8.65 -11.2 L-9.35 -11.2 -9.3 -11.05 Q-9.25 -10.75 -9.6 -10.9 L-9.8 -11.05 -9.85 -11.2 -9.85 -11.25 Q-11.7 -11.4 -13.9 -12.3 L-16.55 -14.85 -16.75 -15.05 -17.15 -15.05 -17.25 -14.95 Q-17.5 -14.65 -17.7 -14.95 L-17.55 -15.2 -17.15 -15.55 -16.7 -15.5 -16.45 -15.4 Q-13.85 -12.2 -9.85 -11.45 L-9.65 -11.7 Q-7.15 -11.35 -5.5 -9.0 L-5.45 -8.95 Q-2.55 -7.55 -1.35 -10.25 L-1.25 -10.4 1.5 -10.25 1.5 -10.15 1.6 -9.45 1.7 -8.9 1.85 -8.75 2.2 -8.25 2.4 -8.0 2.4 -7.9 2.35 -7.75 2.4 -7.4 2.5 -7.3 3.0 -6.65 3.2 -6.4 3.25 -6.2 4.2 -5.0 4.35 -4.95 4.9 -5.0 5.0 -5.1 5.2 -5.25 Q5.6 -6.1 5.6 -7.1 5.65 -8.1 6.4 -8.85 L6.75 -9.15 Q7.15 -9.6 7.75 -9.5 L7.95 -9.35 M-15.7 -4.0 L-15.8 8.65 -15.8 8.75 -15.0 9.75 Q-15.6 9.8 -16.1 9.15 -16.55 2.6 -15.85 -3.95 L-15.7 -4.0 M-5.9 10.65 Q-1.35 13.5 4.15 12.9 5.6 12.75 6.35 13.25 0.4 14.25 -4.85 11.95 -6.35 11.3 -5.9 10.65 M-11.6 10.65 L-11.6 10.75 Q-12.8 11.0 -12.5 10.3 L-12.5 10.25 Q-11.95 10.3 -11.6 10.65 M-13.9 17.95 L-13.35 17.75 -13.25 17.9 -13.35 17.75 -13.9 17.95 M12.9 18.65 L14.65 18.4 14.7 18.35 13.65 18.25 14.7 18.35 14.65 18.4 12.9 18.65 M18.85 10.55 L18.8 10.5 18.85 10.55 M-12.6 17.85 L-12.7 17.6 -12.6 17.85" fill="#000066" fill-rule="evenodd" stroke="none"/>
    <path d="M6.3 18.8 L6.3 18.95 6.3 18.8" fill="url(#gradient0)" fill-rule="evenodd" stroke="none"/>
    <path d="M-16.3 18.2 L-16.35 18.2 Q-17.7 18.0 -18.75 17.0 -19.15 16.6 -19.15 16.05 L-19.45 -2.3 -19.2 -11.9 Q-19.05 -14.25 -19.45 -16.55 L-19.4 -16.65 -19.3 -17.05 -19.25 -17.15 -19.15 -17.45 -19.05 -17.65 -18.9 -17.95 -18.65 -18.0 Q-10.1 -19.55 -1.2 -19.2 L17.85 -18.45 17.9 -18.3 18.0 -18.15 18.05 -18.05 18.1 -17.9 18.1 -17.8 17.05 -14.75 Q16.55 -12.95 16.7 -11.05 L16.7 -10.7 17.8 0.95 Q17.95 3.25 17.45 5.55 L17.5 5.8 18.1 7.6 18.25 8.1 Q18.15 9.45 18.35 10.8 L18.65 11.05 18.95 12.1 18.6 15.8 17.85 17.55 Q15.9 17.45 14.05 18.1 L13.65 18.25 12.5 18.15 12.4 18.15 9.25 18.35 6.3 18.75 6.3 18.8 6.3 18.95 -8.5 17.4 -12.7 17.6 -12.8 17.5 -13.05 17.3 -13.65 17.25 Q-14.85 17.95 -16.35 18.1 L-16.3 18.2 M-11.6 10.65 Q-11.95 10.3 -12.5 10.25 L-12.5 10.3 Q-12.8 11.0 -11.6 10.75 L-11.6 10.65 M-5.9 10.65 Q-6.35 11.3 -4.85 11.95 0.4 14.25 6.35 13.25 5.6 12.75 4.15 12.9 -1.35 13.5 -5.9 10.65 M-15.7 -4.0 L-15.85 -3.95 Q-16.55 2.6 -16.1 9.15 -15.6 9.8 -15.0 9.75 L-15.8 8.75 -15.8 8.65 -15.7 -4.0 M7.95 -9.35 L7.75 -9.5 Q7.15 -9.6 6.75 -9.15 L6.4 -8.85 Q5.65 -8.1 5.6 -7.1 5.6 -6.1 5.2 -5.25 L5.0 -5.1 4.9 -5.0 4.35 -4.95 4.2 -5.0 3.25 -6.2 3.2 -6.4 3.0 -6.65 2.5 -7.3 2.4 -7.4 2.35 -7.75 2.4 -7.9 2.4 -8.0 2.2 -8.25 1.85 -8.75 1.7 -8.9 1.6 -9.45 1.5 -10.15 1.5 -10.25 -1.25 -10.4 -1.35 -10.25 Q-2.55 -7.55 -5.45 -8.95 L-5.5 -9.0 Q-7.15 -11.35 -9.65 -11.7 L-9.85 -11.45 Q-13.85 -12.2 -16.45 -15.4 L-16.7 -15.5 -17.15 -15.55 -17.55 -15.2 -17.7 -14.95 Q-17.5 -14.65 -17.25 -14.95 L-17.15 -15.05 -16.75 -15.05 -16.55 -14.85 -13.9 -12.3 Q-11.7 -11.4 -9.85 -11.25 L-9.85 -11.2 -9.8 -11.05 -9.6 -10.9 Q-9.25 -10.75 -9.3 -11.05 L-9.35 -11.2 -8.65 -11.2 Q-7.95 -10.95 -7.45 -10.4 L-5.6 -8.5 -2.8 -7.95 -1.8 -8.85 -0.55 -10.2 0.85 -10.15 1.15 -10.0 Q1.05 -9.65 1.2 -9.35 L1.3 -8.75 1.3 -8.65 1.5 -8.4 1.85 -8.0 1.9 -7.9 Q1.9 -7.45 2.05 -7.1 2.9 -4.75 5.15 -4.6 L5.35 -4.7 5.6 -4.95 5.65 -5.05 5.95 -6.7 Q6.0 -8.4 7.65 -9.05 7.75 -8.6 8.25 -8.55 L8.8 -8.45 9.0 -8.15 9.25 -7.95 9.4 -7.8 10.25 -7.8 11.15 -8.3 11.35 -8.4 11.8 -8.45 12.45 -8.3 12.65 -8.4 13.5 -9.2 13.6 -9.3 13.65 -9.65 13.75 -10.05 13.8 -10.2 15.0 -10.9 15.35 -11.2 15.25 -11.3 14.85 -11.4 13.5 -10.45 Q13.1 -10.05 13.15 -9.45 12.8 -9.0 12.25 -8.85 L11.35 -8.9 10.4 -8.3 9.6 -8.25 9.4 -8.5 9.2 -8.7 9.1 -8.85 8.4 -8.95 8.25 -9.0 8.15 -9.15 7.95 -9.35" fill="url(#gradient1)" fill-rule="evenodd" stroke="none"/>
  </g>
  <defs>
    <linearGradient gradientTransform="matrix(0.0234, 0.0, 0.0, 0.0233, -0.25, -0.15)" gradientUnits="userSpaceOnUse" id="gradient0" spreadMethod="pad" x1="-819.2" x2="819.2">
      <stop offset="0.0" stop-color="#ffffff"/>
      <stop offset="1.0" stop-color="#ddcfb9"/>
    </linearGradient>
    <linearGradient gradientTransform="matrix(0.0, 0.0181, -0.0234, 0.0, -0.25, 0.45)" gradientUnits="userSpaceOnUse" id="gradient1" spreadMethod="pad" x1="-819.2" x2="819.2">
      <stop offset="0.0" stop-color="#ffffff"/>
      <stop offset="1.0" stop-color="#d7f9fd"/>
    </linearGradient>
  </defs>
</svg>
